# xmcd
#
# Track frame offsets:
#	150
#	15582
#	26693
#	39980
#	52523
#	64787
#	77581
#	89514
#	102982
#	117338
#	128270
#	141759
#	152007
#	166278
#	180681
#
# Disc length: 2609 seconds
#
# Revision: 0
# Processed by: cddbd v1.5.2PL0 Copyright (c) Steve Scherf et al.
# Submitted via: EasyCDDAExtractor 16.0.6.1
#
DISCID=af0a2f0f
DTITLE=Κυριαζής Γιάννης - Ρεμπέτικα πορτρέτα 2-8 Κυριαζής Γιάννης
DYEAR=2010
DGENRE=Ρεμπέτικη
TTITLE0=Είμαι παιδάκι με ψυχή [Βασ. Τσιτσάνης]
TTITLE1=Η Ελένη η ζωντοχήρα [Γ. Εϊζιρίδης ή Γιοβάν Τσαούς]
TTITLE2=Ο ισοβίτης [Μ. Βαμβακάρης]
TTITLE3=Μάννα, με μαχαιρώσανε [Μ. Βαμβακάρης]
TTITLE4=Εγώ θέλω πριγκηπέσσα [Παν. Τούντας]
TTITLE5=Τα ρούχα μου ελιώσανε [Γ. Εϊζιρίδης ή Γιοβάν Τσαούς]
TTITLE6=Το κορόϊδο [Μ. Βαμβακάρης]
TTITLE7=Η Βαρβάρα [Παν. Τούντας]
TTITLE8=Μάννα μου για δες πώς έχω γίνει [Γ. Κυριαζής]
TTITLE9=Δεν σε θέλω πιά, δεν είσαι ωραία [Μ. Βαμβακάρης]
TTITLE10=Πόπη, το σκυλάκι σου [Κ. Ρούκουνας]
TTITLE11=Αθηναίϊσσα [Αν. Δελλιάς]
TTITLE12=Τον Περικλή χτυπήσανε [Γ. Κυριαζής]
TTITLE13=Όλοι οι ρεμπέτες του ντουνιά [Μ. Βαμβακάρης]
TTITLE14=Κάθε βράδυ θα σε περιμένω [Μ. Βαμβακάρης]
EXTD=
EXTT0=
EXTT1=
EXTT2=
EXTT3=
EXTT4=
EXTT5=
EXTT6=
EXTT7=
EXTT8=
EXTT9=
EXTT10=
EXTT11=
EXTT12=
EXTT13=
EXTT14=
PLAYORDER=
